nColumns=19
nRows=111
DataType=double
version=3
OpenSimVersion=4.1
endheader
time	ground_force_1_vx	ground_force_1_vy	ground_force_1_vz	ground_force_1_px	ground_force_1_py	ground_force_1_pz	ground_force_1_mx	ground_force_1_my	ground_force_1_mz	ground_force_2_vx	ground_force_2_vy	ground_force_2_vz	ground_force_2_px	ground_force_2_py	ground_force_2_pz	ground_force_2_mx	ground_force_2_my	ground_force_2_mz
0.03	-0.759668	32.8322	3.99735	0.0973559	0.006	-0.166022	0	0.315465	0	0	0	0	0.699925	0	-0.187122	0	0	0
0.04	-4.5708	56.1189	4.69785	0.117416	0.006	-0.166842	0	0.28169	0	0	0	0	0.699925	0	-0.187122	0	0	0
0.05	-9.66725	84.9909	5.38444	0.128145	0.006	-0.167081	0	0.283732	0	0	0	0	0.699925	0	-0.187122	0	0	0
0.06	-16.2147	119.67	6.00186	0.135168	0.006	-0.167095	0	0.306751	0	0	0	0	0.699925	0	-0.187122	0	0	0
0.07	-24.3402	160.032	6.47615	0.140425	0.006	-0.167002	0	0.346665	0	0	0	0	0.699925	0	-0.187122	0	0	0
0.08	-34.1014	205.491	6.711	0.144776	0.006	-0.166845	0	0.402598	0	0	0	0	0.699925	0	-0.187122	0	0	0
0.09	-45.3962	255.039	6.58751	0.148652	0.006	-0.16664	0	0.474981	0	0	0	0	0.699925	0	-0.187122	0	0	0
0.1	-57.8744	307.448	5.9749	0.152267	0.006	-0.166388	0	0.564113	0	0	0	0	0.699925	0	-0.187122	0	0	0
0.11	-70.991	361.35	4.74351	0.15572	0.006	-0.166085	0	0.668568	0	0	0	0	0.699925	0	-0.187122	0	0	0
0.12	-84.1226	415.219	2.79987	0.159051	0.006	-0.165732	0	0.784988	0	0	0	0	0.699925	0	-0.187122	0	0	0
0.13	-96.6505	467.475	0.130272	0.162268	0.006	-0.165337	0	0.910675	0	0	0	0	0.699925	0	-0.187122	0	0	0
0.14	-108.006	516.683	-3.16905	0.165365	0.006	-0.164918	0	1.04571	0	0	0	0	0.699925	0	-0.187122	0	0	0
0.15	-117.704	561.673	-6.90198	0.168324	0.006	-0.164494	0	1.19102	0	0	0	0	0.699925	0	-0.187122	0	0	0
0.16	-125.383	601.554	-10.8269	0.17113	0.006	-0.16408	0	1.34467	0	0	0	0	0.699925	0	-0.187122	0	0	0
0.17	-130.809	635.658	-14.7008	0.173768	0.006	-0.163689	0	1.50145	0	0	0	0	0.699925	0	-0.187122	0	0	0
0.18	-133.877	663.474	-18.2957	0.17623	0.006	-0.163327	0	1.65494	0	0	0	0	0.699925	0	-0.187122	0	0	0
0.19	-134.592	684.625	-21.4268	0.17852	0.006	-0.162996	0	1.7976	0	0	0	0	0.699925	0	-0.187122	0	0	0
0.2	-133.067	698.903	-23.9786	0.180652	0.006	-0.162688	0	1.92083	0	0	0	0	0.699925	0	-0.187122	0	0	0
0.21	-129.502	706.295	-25.9012	0.182652	0.006	-0.16239	0	2.01679	0	0	0	0	0.699925	0	-0.187122	0	0	0
0.22	-124.177	707.014	-27.202	0.184561	0.006	-0.162086	0	2.07936	0	0	0	0	0.699925	0	-0.187122	0	0	0
0.23	-117.435	701.516	-27.9321	0.186428	0.006	-0.161755	0	2.10449	0	0	0	0	0.699925	0	-0.187122	0	0	0
0.24	-109.649	690.486	-28.1655	0.18831	0.006	-0.161375	0	2.09031	0	0	0	0	0.699925	0	-0.187122	0	0	0
0.25	-101.192	674.793	-27.985	0.190268	0.006	-0.160924	0	2.03677	0	0	0	0	0.699925	0	-0.187122	0	0	0
0.26	-92.4094	655.441	-27.4751	0.19236	0.006	-0.160381	0	1.94501	0	0	0	0	0.699925	0	-0.187122	0	0	0
0.27	-83.5958	633.501	-26.7176	0.19464	0.006	-0.159729	0	1.81661	0	0	0	0	0.699925	0	-0.187122	0	0	0
0.28	-74.9889	610.038	-25.7888	0.197155	0.006	-0.15895	0	1.65306	0	0	0	0	0.699925	0	-0.187122	0	0	0
0.29	-66.7654	586.05	-24.7559	0.19994	0.006	-0.158034	0	1.45549	0	0	0	0	0.699925	0	-0.187122	0	0	0
0.3	-59.0458	562.424	-23.6768	0.203018	0.006	-0.156973	0	1.22457	0	0	0	0	0.699925	0	-0.187122	0	0	0
0.31	-51.9032	539.921	-22.5998	0.2064	0.006	-0.155769	0	0.960798	0	0	0	0	0.699925	0	-0.187122	0	0	0
0.32	-45.3673	519.165	-21.5666	0.210081	0.006	-0.15443	0	0.664947	0	0	0	0	0.699925	0	-0.187122	0	0	0
0.33	-39.4282	500.655	-20.6167	0.21404	0.006	-0.152973	0	0.338479	0	0	0	0	0.699925	0	-0.187122	0	0	0
0.34	-34.0422	484.781	-19.7873	0.218237	0.006	-0.151424	0	-0.01604	0	0	0	0	0.699925	0	-0.187122	0	0	0
0.35	-29.1411	471.834	-19.114	0.222618	0.006	-0.149814	0	-0.394803	0	0	0	0	0.699925	0	-0.187122	0	0	0
0.36	-24.6417	462.005	-18.6293	0.227119	0.006	-0.14818	0	-0.792897	0	0	0	0	0.699925	0	-0.187122	0	0	0
0.37	-20.4519	455.398	-18.3623	0.231673	0.006	-0.146564	0	-1.20462	0	0	0	0	0.699925	0	-0.187122	0	0	0
0.38	-16.4741	452.031	-18.3379	0.236214	0.006	-0.145002	0	-1.62366	0	0	0	0	0.699925	0	-0.187122	0	0	0
0.39	-12.6098	451.849	-18.5739	0.240686	0.006	-0.14353	0	-2.04342	0	0	0	0	0.699925	0	-0.187122	0	0	0
0.4	-8.76343	454.733	-19.0783	0.245043	0.006	-0.142173	0	-2.45709	0	0	0	0	0.699925	0	-0.187122	0	0	0
0.41	-4.8449	460.519	-19.8455	0.249255	0.006	-0.140953	0	-2.85771	0	0	0	0	0.699925	0	-0.187122	0	0	0
0.42	-0.770947	469.007	-20.8574	0.253303	0.006	-0.139882	0	-3.23807	0	0	0	0	0.699925	0	-0.187122	0	0	0
0.43	3.5337	479.974	-22.0854	0.257175	0.006	-0.138967	0	-3.59082	0	0	0	0	0.699925	0	-0.187122	0	0	0
0.44	8.13305	493.174	-23.4931	0.26087	0.006	-0.13821	0	-3.90856	0	0	0	0	0.699925	0	-0.187122	0	0	0
0.45	13.0746	508.327	-25.0368	0.26439	0.006	-0.137611	0	-4.1842	0	0	0	0	0.699925	0	-0.187122	0	0	0
0.46	18.3851	525.11	-26.6649	0.26774	0.006	-0.137164	0	-4.41154	0	0	0	0	0.699925	0	-0.187122	0	0	0
0.47	24.0686	543.145	-28.3173	0.270929	0.006	-0.136865	0	-4.58576	0	0	0	0	0.699925	0	-0.187122	0	0	0
0.48	30.1067	561.982	-29.9261	0.27397	0.006	-0.136707	0	-4.70376	0	0	0	0	0.699925	0	-0.187122	0	0	0
0.49	36.4584	581.087	-31.4182	0.276877	0.006	-0.136683	0	-4.7641	0	0	0	0	0.699925	0	-0.187122	0	0	0
0.5	43.0617	599.829	-32.7188	0.279668	0.006	-0.136781	0	-4.76695	0	0	0	0	0.699925	0	-0.187122	0	0	0
0.51	49.8371	617.485	-33.754	0.282364	0.006	-0.136988	0	-4.7141	0	0	0	0	0.699925	0	-0.187122	0	0	0
0.52	56.6908	633.257	-34.4532	0.284984	0.006	-0.137286	0	-4.60915	0	0	0	0	0.699925	0	-0.187122	0	0	0
0.53	63.5173	646.3	-34.7515	0.287549	0.006	-0.137662	0	-4.45769	0	0	0	0	0.699925	0	-0.187122	0	0	0
0.54	70.1976	655.76	-34.5939	0.290076	0.006	-0.138098	0	-4.26733	0	0	0	0	0.699925	0	-0.187122	0	0	0
0.55	76.5942	660.817	-33.9394	0.29258	0.006	-0.138581	0	-4.0473	0	-0.878586	23.5365	-3.42756	0.699925	0.006	-0.187122	0	0.215673	0
0.56	82.5486	660.734	-32.7665	0.295072	0.006	-0.139098	0	-3.80782	0	-3.67474	44.3527	-3.64628	0.748316	0.006	-0.208326	0	0.312924	0
0.57	87.8814	654.895	-31.0781	0.297562	0.006	-0.139638	0	-3.55903	0	-7.50736	70.4742	-3.8499	0.77041	0.006	-0.217295	0	0.345222	0
0.58	92.3933	642.844	-28.9054	0.300058	0.006	-0.140191	0	-3.31	0	-12.5311	102.195	-4.01706	0.783481	0.006	-0.22209	0	0.348488	0
0.59	95.8699	624.316	-26.309	0.302569	0.006	-0.14075	0	-3.06775	0	-18.878	139.512	-4.11997	0.792476	0.006	-0.224999	0	0.330879	0
0.6	98.094	599.263	-23.3781	0.305105	0.006	-0.141308	0	-2.83655	0	-26.6403	182.025	-4.12154	0.799362	0.006	-0.226917	0	0.293515	0
0.61	98.8628	567.884	-20.2271	0.307681	0.006	-0.141857	0	-2.61781	0	-35.8048	228.956	-3.96912	0.805066	0.006	-0.228266	0	0.23527	0
0.62	98.0081	530.644	-16.9876	0.310315	0.006	-0.142391	0	-2.41042	0	-46.1534	279.268	-3.59146	0.810055	0.006	-0.229278	0	0.154882	0
0.63	95.4198	488.289	-13.7989	0.31303	0.006	-0.142906	0	-2.21115	0	-57.274	331.708	-2.90715	0.814564	0.006	-0.230088	0	0.052185	0
0.64	91.0702	441.844	-10.7969	0.315857	0.006	-0.143397	0	-2.01553	0	-68.6378	384.778	-1.84718	0.818709	0.006	-0.230775	0	-0.071507	0
0.65	85.0382	392.584	-8.10126	0.318835	0.006	-0.143862	0	-1.81937	0	-79.6594	436.816	-0.380789	0.822545	0.006	-0.231385	0	-0.214008	0
0.66	77.5316	341.956	-5.80031	0.322009	0.006	-0.144301	0	-1.62051	0	-89.7476	486.175	1.4724	0.826092	0.006	-0.231946	0	-0.372118	0
0.67	68.8888	291.471	-3.93845	0.325437	0.006	-0.14471	0	-1.41958	0	-98.3727	531.416	3.65534	0.829357	0.006	-0.23248	0	-0.540046	0
0.68	59.5415	242.592	-2.51008	0.329206	0.006	-0.145085	0	-1.21977	0	-105.142	571.428	6.09254	0.83235	0.006	-0.233001	0	-0.709148	0
0.69	49.9569	196.619	-1.46651	0.333453	0.006	-0.145421	0	-1.02578	0	-109.825	605.427	8.68114	0.835088	0.006	-0.233525	0	-0.870659	0
0.7	40.5828	154.603	-0.73321	0.338419	0.006	-0.145714	0	-0.842476	0	-112.323	632.903	11.3016	0.837594	0.006	-0.23406	0	-1.01668	0
0.71	31.804	117.275	-0.227374	0.344533	0.006	-0.145954	0	-0.673849	0	-112.659	653.578	13.8459	0.839897	0.006	-0.234616	0	-1.14012	0
0.72	23.9082	85.0317	0.126526	0.352623	0.006	-0.146118	0	-0.523086	0	-110.958	667.391	16.2245	0.842034	0.006	-0.235202	0	-1.23618	0
0.73	17.0713	57.9632	0.384727	0.364471	0.006	-0.146154	0	-0.393348	0	-107.431	674.497	18.3715	0.844044	0.006	-0.235825	0	-1.30255	0
0.74	11.3592	35.9106	0.579026	0.384709	0.006	-0.145904	0	-0.289485	0	-102.356	675.267	20.2429	0.845969	0.006	-0.236491	0	-1.33932	0
0.75	0	0	0	0.424847	0	-0.145111	0	0	0	-96.0555	670.282	21.8102	0.847852	0.006	-0.237205	0	-1.34829	0
0.76	0	0	0	0.457323	0	-0.145478	0	0	0	-88.8635	660.304	23.0508	0.849735	0.006	-0.237968	0	-1.33217	0
0.77	0	0	0	0.4898	0	-0.145845	0	0	0	-81.1021	646.241	23.9433	0.851654	0.006	-0.238778	0	-1.29366	0
0.78	0	0	0	0.522276	0	-0.146212	0	0	0	-73.0598	629.09	24.4675	0.853643	0.006	-0.239628	0	-1.2344	0
0.79	0	0	0	0.554752	0	-0.14658	0	0	0	-64.978	609.885	24.6082	0.855728	0.006	-0.240511	0	-1.15434	0
0.8	0	0	0	0.587228	0	-0.146947	0	0	0	-57.048	589.628	24.3601	0.857934	0.006	-0.241415	0	-1.05175	0
0.81	0	0	0	0.619704	0	-0.147314	0	0	0	-49.4132	569.244	23.7342	0.860275	0.006	-0.24233	0	-0.923747	0
0.82	0	0	0	0.65218	0	-0.147681	0	0	0	-42.175	549.537	22.7624	0.862766	0.006	-0.243245	0	-0.767104	0
0.83	0	0	0	0.684657	0	-0.148049	0	0	0	-35.3976	531.173	21.4984	0.865414	0.006	-0.244153	0	-0.579271	0
0.84	0	0	0	0.717133	0	-0.148416	0	0	0	-29.1123	514.673	20.0164	0.868223	0.006	-0.245048	0	-0.359289	0
0.85	0	0	0	0.749609	0	-0.148783	0	0	0	-23.3223	500.422	18.4084	0.871192	0.006	-0.24593	0	-0.108404	0
0.86	0	0	0	0.782085	0	-0.14915	0	0	0	-18.0059	488.686	16.7799	0.874314	0.006	-0.246804	0	0.169673	0
0.87	0	0	0	0.814561	0	-0.149518	0	0	0	-13.12	479.628	15.2421	0.877574	0.006	-0.247675	0	0.468734	0
0.88	0	0	0	0.847038	0	-0.149885	0	0	0	-8.60178	473.336	13.8996	0.880955	0.006	-0.248552	0	0.780592	0
0.89	0	0	0	0.879514	0	-0.150252	0	0	0	-4.37366	469.844	12.8369	0.884431	0.006	-0.249441	0	1.09608	0
0.9	0	0	0	0.91199	0	-0.150619	0	0	0	-0.347607	469.146	12.1104	0.887975	0.006	-0.250341	0	1.40608	0
0.91	0	0	0	0.944466	0	-0.150986	0	0	0	3.57054	471.199	11.7485	0.891556	0.006	-0.251249	0	1.70205	0
0.92	0	0	0	0.976942	0	-0.151354	0	0	0	7.47635	475.925	11.7561	0.89514	0.006	-0.252153	0	1.97623	0
0.93	0	0	0	1.00942	0	-0.151721	0	0	0	11.4611	483.207	12.1202	0.898698	0.006	-0.253038	0	2.22159	0
0.94	0	0	0	1.04189	0	-0.152088	0	0	0	15.6063	492.883	12.8128	0.902201	0.006	-0.253887	0	2.43189	0
0.95	0	0	0	1.07437	0	-0.152455	0	0	0	19.9797	504.746	13.7937	0.905626	0.006	-0.254684	0	2.60161	0
0.96	0	0	0	1.10685	0	-0.152823	0	0	0	24.6329	518.531	15.013	0.908956	0.006	-0.255411	0	2.726	0
0.97	0	0	0	1.13932	0	-0.15319	0	0	0	29.6002	533.913	16.4132	0.912182	0.006	-0.256056	0	2.8013	0
0.98	0	0	0	1.1718	0	-0.153557	0	0	0	34.8962	550.485	17.9304	0.9153	0.006	-0.256605	0	2.82529	0
0.99	0	0	0	1.20427	0	-0.153924	0	0	0	40.5124	567.752	19.4952	0.918313	0.006	-0.25705	0	2.79762	0
1	0	0	0	1.23675	0	-0.154292	0	0	0	46.415	585.116	21.0339	0.92123	0.006	-0.257386	0	2.7201	0
1.01	0	0	0	1.26923	0	-0.154659	0	0	0	52.5436	601.88	22.4694	0.924065	0.006	-0.257612	0	2.59677	0
1.02	0	0	0	1.3017	0	-0.155026	0	0	0	58.8135	617.263	23.7224	0.926835	0.006	-0.257731	0	2.43379	0
1.03	0	0	0	1.33418	0	-0.155393	0	0	0	65.1184	630.426	24.7142	0.929556	0.006	-0.257747	0	2.23942	0
1.04	0	0	0	1.36666	0	-0.155761	0	0	0	71.332	640.511	25.3697	0.932248	0.006	-0.257667	0	2.02378	0
1.05	0	0	0	1.39913	0	-0.156128	0	0	0	77.3094	646.688	25.6235	0.934923	0.006	-0.257496	0	1.79843	0
1.06	2.08722	34.3987	4.19574	1.42659	0.006	-0.159597	0	0.087852	0	82.8898	648.186	25.4248	0.937595	0.006	-0.257241	0	1.57577	0
1.07	-0.485431	57.4127	5.05102	1.43997	0.006	-0.161592	0	0.051054	0	87.8974	644.333	24.7426	0.940271	0.006	-0.256907	0	1.36807	0
1.08	-4.10315	85.8497	5.90961	1.44819	0.006	-0.16241	0	0.038377	0	92.1418	634.591	23.5691	0.942957	0.006	-0.256499	0	1.18654	0
1.09	-8.93884	119.877	6.70823	1.45423	0.006	-0.162737	0	0.041193	0	95.4221	618.584	21.9246	0.945655	0.006	-0.256021	0	1.0405	0
1.1	-15.1469	159.311	7.36176	1.45918	0.006	-0.162814	0	0.058317	0	97.5325	596.137	19.8609	0.948371	0.006	-0.255475	0	0.936288	0
1.11	-22.8311	203.524	7.76379	1.46359	0.006	-0.162741	0	0.091228	0	98.2748	567.312	17.4604	0.951113	0.006	-0.254865	0	0.876617	0
1.12	-31.9399	251.505	7.7939	1.46772	0.006	-0.162558	0	0.142367	0	97.4775	532.443	14.8311	0.95389	0.006	-0.254188	0	0.86039	0
1.13	-42.1812	301.999	7.32997	1.47171	0.006	-0.162278	0	0.214559	0	95.0211	492.173	12.0984	0.956721	0.006	-0.253442	0	0.882921	0
